<svg width="28" height="28" viewBox="0 0 28 28" fill="none" xmlns="http://www.w3.org/2000/svg">
<path d="M20.0605 17.8114C21.6443 15.6501 22.3537 12.9705 22.0467 10.3087C21.7397 7.64685 20.439 5.19908 18.4048 3.45509C16.3705 1.7111 13.7528 0.799498 11.0753 0.902666C8.39783 1.00583 5.85802 2.11616 3.96402 4.01152C2.07003 5.90687 0.961514 8.44747 0.860261 11.125C0.759009 13.8026 1.67248 16.4197 3.41793 18.4526C5.16338 20.4856 7.61208 21.7846 10.2741 22.0897C12.9362 22.3948 15.6153 21.6835 17.7754 20.0981H17.7738C17.8228 20.1635 17.8752 20.2257 17.9341 20.2862L24.2315 26.5836C24.5382 26.8905 24.9543 27.063 25.3882 27.0632C25.8221 27.0634 26.2382 26.8911 26.5452 26.5844C26.8521 26.2777 27.0246 25.8617 27.0248 25.4278C27.0249 24.9939 26.8527 24.5777 26.546 24.2707L20.2486 17.9733C20.1901 17.9141 20.1272 17.8594 20.0605 17.8097V17.8114ZM20.4825 11.5238C20.4825 12.7052 20.2498 13.875 19.7977 14.9665C19.3456 16.058 18.6829 17.0497 17.8475 17.8851C17.0121 18.7205 16.0204 19.3832 14.9289 19.8353C13.8374 20.2874 12.6676 20.5201 11.4861 20.5201C10.3047 20.5201 9.13489 20.2874 8.0434 19.8353C6.95192 19.3832 5.96017 18.7205 5.12479 17.8851C4.2894 17.0497 3.62674 16.058 3.17463 14.9665C2.72252 13.875 2.48982 12.7052 2.48982 11.5238C2.48982 9.13779 3.43765 6.84954 5.12479 5.1624C6.81192 3.47527 9.10017 2.52744 11.4861 2.52744C13.8721 2.52744 16.1604 3.47527 17.8475 5.1624C19.5346 6.84954 20.4825 9.13779 20.4825 11.5238Z" fill="#D9D9D9"/>
</svg>
