<svg width="43" height="43" viewBox="0 0 43 43" fill="none" xmlns="http://www.w3.org/2000/svg">
<g filter="url(#filter0_d_58_860)">
<circle cx="21.5" cy="17.5" r="17.5" fill="white"/>
</g>
<path fill-rule="evenodd" clip-rule="evenodd" d="M26.7902 26.3591C26.7239 26.4256 26.6451 26.4783 26.5583 26.5143C26.4716 26.5503 26.3785 26.5688 26.2846 26.5688C26.1907 26.5688 26.0977 26.5503 26.0109 26.5143C25.9242 26.4783 25.8454 26.4256 25.779 26.3591L17.2098 17.7898C17.1433 17.7235 17.0905 17.6447 17.0545 17.5579C17.0185 17.4712 17 17.3782 17 17.2842C17 17.1903 17.0185 17.0973 17.0545 17.0105C17.0905 16.9238 17.1433 16.845 17.2098 16.7786L25.779 8.2094C25.9131 8.07531 26.095 7.99998 26.2846 7.99998C26.4743 7.99998 26.6561 8.07531 26.7902 8.2094C26.9243 8.34349 26.9996 8.52535 26.9996 8.71499C26.9996 8.90462 26.9243 9.08648 26.7902 9.22057L18.7251 17.2842L26.7902 25.3479C26.8567 25.4142 26.9095 25.493 26.9455 25.5798C26.9815 25.6665 27 25.7595 27 25.8535C27 25.9474 26.9815 26.0404 26.9455 26.1272C26.9095 26.2139 26.8567 26.2927 26.7902 26.3591Z" fill="black"/>
<defs>
<filter id="filter0_d_58_860" x="0" y="0" width="43" height="43" filterUnits="userSpaceOnUse" color-interpolation-filters="sRGB">
<feFlood flood-opacity="0" result="BackgroundImageFix"/>
<feColorMatrix in="SourceAlpha" type="matrix" values="0 0 0 0 0 0 0 0 0 0 0 0 0 0 0 0 0 0 127 0" result="hardAlpha"/>
<feOffset dy="4"/>
<feGaussianBlur stdDeviation="2"/>
<feComposite in2="hardAlpha" operator="out"/>
<feColorMatrix type="matrix" values="0 0 0 0 0.983333 0 0 0 0 0.975139 0 0 0 0 0.975139 0 0 0 0.2 0"/>
<feBlend mode="normal" in2="BackgroundImageFix" result="effect1_dropShadow_58_860"/>
<feBlend mode="normal" in="SourceGraphic" in2="effect1_dropShadow_58_860" result="shape"/>
</filter>
</defs>
</svg>
