<svg width="28" height="28" viewBox="0 0 28 28" fill="none" xmlns="http://www.w3.org/2000/svg">
<g filter="url(#filter0_d_58_999)">
<circle cx="14" cy="10" r="10" fill="#0DA54B"/>
<circle cx="14" cy="10" r="9.5" stroke="#D9D9D9"/>
</g>
<path d="M17.9656 7.17995C18.0214 7.12298 18.088 7.07771 18.1616 7.04681C18.2351 7.01592 18.3141 7 18.3939 7C18.4737 7 18.5526 7.01592 18.6262 7.04681C18.6997 7.07771 18.7664 7.12298 18.8222 7.17995C19.0562 7.41641 19.0595 7.79851 18.8304 8.03906L13.9924 13.7583C13.9375 13.8186 13.8708 13.8671 13.7965 13.9007C13.7222 13.9344 13.6418 13.9526 13.5602 13.9541C13.4787 13.9556 13.3976 13.9405 13.3221 13.9096C13.2466 13.8788 13.1782 13.8328 13.121 13.7746L10.1771 10.7915C10.0636 10.6757 10 10.52 10 10.3578C10 10.1957 10.0636 10.04 10.1771 9.92419C10.233 9.86721 10.2996 9.82195 10.3732 9.79105C10.4467 9.76015 10.5257 9.74424 10.6055 9.74424C10.6852 9.74424 10.7642 9.76015 10.8378 9.79105C10.9113 9.82195 10.9779 9.86721 11.0338 9.92419L13.5309 12.4549L17.9492 7.19795C17.9543 7.19163 17.9598 7.18562 17.9656 7.17995Z" fill="white"/>
<defs>
<filter id="filter0_d_58_999" x="0" y="0" width="28" height="28" filterUnits="userSpaceOnUse" color-interpolation-filters="sRGB">
<feFlood flood-opacity="0" result="BackgroundImageFix"/>
<feColorMatrix in="SourceAlpha" type="matrix" values="0 0 0 0 0 0 0 0 0 0 0 0 0 0 0 0 0 0 127 0" result="hardAlpha"/>
<feOffset dy="4"/>
<feGaussianBlur stdDeviation="2"/>
<feComposite in2="hardAlpha" operator="out"/>
<feColorMatrix type="matrix" values="0 0 0 0 0.898039 0 0 0 0 0.898039 0 0 0 0 0.898039 0 0 0 0.25 0"/>
<feBlend mode="normal" in2="BackgroundImageFix" result="effect1_dropShadow_58_999"/>
<feBlend mode="normal" in="SourceGraphic" in2="effect1_dropShadow_58_999" result="shape"/>
</filter>
</defs>
</svg>
