<svg width="20" height="20" viewBox="0 0 20 20" fill="none" xmlns="http://www.w3.org/2000/svg">
<circle cx="10" cy="10" r="10" fill="#E4E4E4"/>
<path d="M9.93455 4.6875C10.2992 4.6875 10.649 4.83237 10.9068 5.09023C11.1647 5.34809 11.3096 5.69783 11.3096 6.0625V7.4375H8.55955V6.0625C8.55955 5.69783 8.70442 5.34809 8.96228 5.09023C9.22014 4.83237 9.56988 4.6875 9.93455 4.6875ZM11.9971 7.4375V6.0625C11.9971 5.51549 11.7798 4.99089 11.393 4.60409C11.0062 4.2173 10.4816 4 9.93455 4C9.38754 4 8.86294 4.2173 8.47615 4.60409C8.08935 4.99089 7.87205 5.51549 7.87205 6.0625V7.4375H6.74455C6.49765 7.43755 6.25897 7.52619 6.07187 7.68729C5.88478 7.8484 5.7617 8.07128 5.72499 8.31544L5.01893 13.0269C4.98234 13.2713 4.99892 13.5208 5.06753 13.7583C5.13613 13.9958 5.25516 14.2156 5.41647 14.4029C5.57779 14.5902 5.77761 14.7405 6.00229 14.8436C6.22698 14.9466 6.47124 15 6.71843 15H13.15C13.3972 15.0001 13.6416 14.9468 13.8663 14.8438C14.0911 14.7408 14.291 14.5905 14.4524 14.4032C14.6138 14.2159 14.7329 13.996 14.8015 13.7585C14.8702 13.5209 14.8868 13.2714 14.8502 13.0269L14.1434 8.31544C14.1067 8.0714 13.9838 7.84861 13.7968 7.68752C13.6099 7.52643 13.3713 7.43772 13.1246 7.4375H11.9971ZM11.3096 8.125V9.15625C11.3096 9.24742 11.3458 9.33485 11.4102 9.39932C11.4747 9.46378 11.5621 9.5 11.6533 9.5C11.7445 9.5 11.8319 9.46378 11.8964 9.39932C11.9608 9.33485 11.9971 9.24742 11.9971 9.15625V8.125H13.1239C13.2062 8.12508 13.2857 8.15468 13.348 8.20843C13.4103 8.26217 13.4513 8.33649 13.4635 8.41788L14.1702 13.1279C14.1923 13.2747 14.1824 13.4244 14.1413 13.567C14.1002 13.7095 14.0288 13.8415 13.9321 13.954C13.8353 14.0664 13.7154 14.1567 13.5805 14.2185C13.4457 14.2804 13.299 14.3125 13.1507 14.3125H6.71843C6.57006 14.3125 6.42345 14.2804 6.2886 14.2185C6.15375 14.1567 6.03384 14.0664 5.93705 13.954C5.84026 13.8415 5.76888 13.7095 5.72778 13.567C5.68667 13.4244 5.67681 13.2747 5.69887 13.1279L6.40562 8.41788C6.41778 8.3366 6.45865 8.26238 6.52083 8.20865C6.58301 8.15492 6.66238 8.12525 6.74455 8.125H7.87205V9.15625C7.87205 9.24742 7.90827 9.33485 7.97274 9.39932C8.0372 9.46378 8.12463 9.5 8.2158 9.5C8.30697 9.5 8.39441 9.46378 8.45887 9.39932C8.52334 9.33485 8.55955 9.24742 8.55955 9.15625V8.125H11.3096Z" fill="black"/>
</svg>
