<svg width="38" height="38" viewBox="0 0 38 38" fill="none" xmlns="http://www.w3.org/2000/svg">
<g filter="url(#filter0_d_55_335)">
<circle cx="19" cy="15" r="15" fill="white"/>
</g>
<path d="M19.4287 10.3643L18.7373 9.65358C17.1144 7.98531 14.1385 8.56101 13.0642 10.6584C12.5599 11.6449 12.4461 13.0692 13.367 14.8869C14.2542 16.6371 16.0999 18.7336 19.4287 21.0171C22.7575 18.7336 24.6023 16.6371 25.4904 14.8869C26.4113 13.0682 26.2985 11.6449 25.7932 10.6584C24.7189 8.56101 21.7431 7.98435 20.1201 9.65261L19.4287 10.3643ZM19.4287 22.1791C4.64287 12.4086 14.8762 4.78282 19.259 8.81655C19.3169 8.86959 19.3737 8.92456 19.4287 8.98145C19.4831 8.92461 19.5397 8.86992 19.5984 8.81752C23.9803 4.78089 34.2146 12.4077 19.4287 22.1791Z" fill="black"/>
<defs>
<filter id="filter0_d_55_335" x="0" y="0" width="38" height="38" filterUnits="userSpaceOnUse" color-interpolation-filters="sRGB">
<feFlood flood-opacity="0" result="BackgroundImageFix"/>
<feColorMatrix in="SourceAlpha" type="matrix" values="0 0 0 0 0 0 0 0 0 0 0 0 0 0 0 0 0 0 127 0" result="hardAlpha"/>
<feOffset dy="4"/>
<feGaussianBlur stdDeviation="2"/>
<feComposite in2="hardAlpha" operator="out"/>
<feColorMatrix type="matrix" values="0 0 0 0 0.898039 0 0 0 0 0.898039 0 0 0 0 0.898039 0 0 0 0.25 0"/>
<feBlend mode="normal" in2="BackgroundImageFix" result="effect1_dropShadow_55_335"/>
<feBlend mode="normal" in="SourceGraphic" in2="effect1_dropShadow_55_335" result="shape"/>
</filter>
</defs>
</svg>
